<svg xmlns="http://www.w3.org/2000/svg" viewBox="0 0 28.18 55.26"><defs><style>.cls-1{fill:#be0d0d;}</style></defs><g id="Layer_2" data-name="Layer 2"><g id="al"><path class="cls-1" d="M27,27.19a2.74,2.74,0,0,1,.18-1.1,3.62,3.62,0,0,1,.25-.48,6,6,0,0,0,.44-1.18,6.23,6.23,0,0,0,.26-2.81l-1.39.28a23.18,23.18,0,0,0,1.09-6.18c0-.11-.77.1-.83.13a1.54,1.54,0,0,0-.62.54,1.87,1.87,0,0,1,0-.94,4.51,4.51,0,0,0,0-1.27,11.06,11.06,0,0,0-.71-2.77,1.52,1.52,0,0,0-1.13.39,1.72,1.72,0,0,0-.37.48c-.17.33-.06.44-.5.51a8.48,8.48,0,0,0-.34-1.91c-.14-.44-.37-.66-.83-.44-.7.34-1.54.56-1.9-.31-.16-.4-.4-.75-.56-1.15-.06-.13-.34-1.37-.36-1.38a1.52,1.52,0,0,0-1.34.31c-1,.62-1.17-1.18-1.17-1.78,0-2,0-4.09-.05-6.13A8.14,8.14,0,0,0,14,3.2C13,4.67,12.34,6.4,10.8,7.33A4.45,4.45,0,0,1,8.47,8,14.72,14.72,0,0,1,7.18,11.5a4.81,4.81,0,0,1-2.38-.6c-.29.89-.58,1.77-.86,2.66a13.72,13.72,0,0,0-.29,1.68c-.11.56-.5.74-1,.94a2,2,0,0,0-1.28,1.33A4.36,4.36,0,0,0,2,20.45c-.07-.14-1.58.25-1.75.29l2.06,3.84c-.35.23-.81.09-1.23,0s-.85,0-1,.35.28.95.5,1.29a1.32,1.32,0,0,1,.19,1.54c-.3.64,0,.95.37,1.49A26.16,26.16,0,0,1,2.54,31.5c.22.38.43.77.63,1.16.05.1.36.83.49,1.07A37.37,37.37,0,0,0,14,40.89c.06-.79.16-1.57.24-2.34a.6.6,0,0,1-.52,0l0,0h0a13.71,13.71,0,0,1-3.09-2.93C9.7,34.51,8.9,33.42,8,32.46s-2-1.79-3-2.74a7.74,7.74,0,0,1-2.31-3.37A7.5,7.5,0,0,0,5.12,29.5c1,.86,2.19,1.61,3.25,2.53s2,2,2.88,3a12.45,12.45,0,0,0,3,2.49l.05,0c.06-.66.1-1.31.1-2v-.08c0-.17,0-.33,0-.5a.62.62,0,0,1-.32-.22s0,0,0,0a20.61,20.61,0,0,0-2.9-3.32c-1.08-1-2.24-2-3.35-3.05A26.06,26.06,0,0,1,4.69,25,12.2,12.2,0,0,1,2.6,21a11.86,11.86,0,0,0,2.34,3.83,25,25,0,0,0,3.28,3.06c1.18.95,2.39,1.85,3.57,2.82A24.21,24.21,0,0,1,14.24,33c-.09-.95-.16-1.9-.23-2.84L8.74,24.06C7.81,23,6.85,21.9,6,20.74a16.48,16.48,0,0,1-1.16-1.82,4.38,4.38,0,0,1-.41-1,2,2,0,0,1,0-1.07,2,2,0,0,0,.08,1,4.13,4.13,0,0,0,.47.94,17.7,17.7,0,0,0,1.28,1.71c.92,1.08,1.94,2.07,2.95,3.08l4.69,4.7c-.07-1.27-.12-2.54-.16-3.81a.63.63,0,0,1-.45-.15l0-.05-2.15-2.26c-.71-.75-1.45-1.49-2.13-2.31a12.41,12.41,0,0,1-1.72-2.67,12.2,12.2,0,0,1-1-3,12,12,0,0,0,3.14,5.23c.72.71,1.53,1.37,2.32,2.05l2,1.69c0-1.11,0-2.22,0-3.32a.64.64,0,0,1-.46-.12l-.05-.05h0a20,20,0,0,1-3.14-4,14.74,14.74,0,0,1-1.12-2.25,4.84,4.84,0,0,1-.27-1.23A2.26,2.26,0,0,0,8.32,11a2.39,2.39,0,0,1,.47,1.14,5,5,0,0,0,.41,1.14,14.22,14.22,0,0,0,1.35,2,18.71,18.71,0,0,0,3.15,3.14l0-1.3a.33.33,0,0,1-.05-.4l0,0,0-.05v-.3c0-.4,0-.81,0-1.2l0-.43a.33.33,0,0,1-.33-.14l0,0a28.32,28.32,0,0,1-1.26-2.81c-.18-.48-.35-1-.5-1.45a2.53,2.53,0,0,1-.15-1.51,2.45,2.45,0,0,0,.31,1.45c.21.46.42.92.66,1.37.38.74.8,1.46,1.25,2.16a24.27,24.27,0,0,1,1.68-9.28,24.19,24.19,0,0,0-1.26,9.46c0,.39.09.78.13,1.2l0,.8q2.3-3.13,4.81-6.08c-1.7,2.33-3.29,4.73-4.78,7.18l.05,1.72c0,.68,0,1.36.06,2,1-1.35,2.14-2.66,3.29-3.91.64-.71,1.3-1.39,2-2.06a8.43,8.43,0,0,0,1.77-2.18A8.29,8.29,0,0,1,19.89,15c-.59.74-1.16,1.48-1.72,2.24-1.11,1.52-2.14,3.1-3.1,4.7a.64.64,0,0,1-.59.31c0,.42,0,.85.07,1.28l.12,1.53A8.6,8.6,0,0,0,17.08,23l2.34-2.72,4.68-5.44-4.19,5.83-2.09,2.92a9.16,9.16,0,0,1-2.69,2.68h0a.63.63,0,0,1-.35.09c.09,1.07.2,2.15.32,3.22l.18.17a.69.69,0,0,1,.18.42,24.34,24.34,0,0,1,1.71-1.8c1-.93,2-1.81,2.89-2.76s1.72-2,2.62-3a7.49,7.49,0,0,1,3.26-2.31,7.3,7.3,0,0,0-3,2.51c-.81,1.05-1.52,2.19-2.4,3.24s-1.8,2-2.68,3a18.55,18.55,0,0,0-2.33,3.11l-.08.11c0,.29.07.58.11.87l.16,1.09c1.65-1.39,3.26-2.84,4.82-4.33.95-.9,1.87-1.83,2.79-2.77a12.1,12.1,0,0,1,3.07-2.45,11.81,11.81,0,0,0-2.84,2.67c-.84,1-1.69,2-2.57,3Q18.49,33,15.82,35.64c0,.8,0,1.59,0,2.37,0,.2,0,.4,0,.6,1.45-1.29,2.81-2.73,4.28-4.07a25.11,25.11,0,0,1,3-2.36,12.86,12.86,0,0,1,3.41-1.62,12.58,12.58,0,0,0-3.23,1.88A23.31,23.31,0,0,0,20.47,35c-1.61,1.74-3.07,3.63-4.83,5.33,0,.83-.08,1.64,0,2.44h0a.85.85,0,0,1-.3.68,7.31,7.31,0,0,1-1,0,.83.83,0,0,1-.37-.66v0c0-.19,0-.37,0-.56A38,38,0,0,1,3.67,33.81L2,33.88c.17.56.36,1.11.51,1.69a5,5,0,0,0,1,1.57,20.34,20.34,0,0,0,2.77,3A21,21,0,0,0,10,42.67a19,19,0,0,0,2,1c.35.14.7.27,1.06.39a5.22,5.22,0,0,0,.79.26,16.69,16.69,0,0,1-1.2,4.78A8.61,8.61,0,0,1,9,53.33H9l0,0a1,1,0,1,0,1,1.76,9.19,9.19,0,0,0,2.67-2.36,12.13,12.13,0,0,0,1.7-3,19,19,0,0,0,1.15-5.92h0c.85-.45,1.78-.69,2.65-1.11a13.34,13.34,0,0,0,4.67-3.78,10.62,10.62,0,0,0,.51-.94c.25-.42.64-.76.92-1.17.08-.12.66-1.33.67-1.33h-.26l-1.16,0a4.37,4.37,0,0,1,.84-1.56c1.07-1.27,2-2.71,3-4.07a2.82,2.82,0,0,0,.7-1.54C28,27.69,27.55,27.07,27,27.19Z"/></g></g></svg>