<svg xmlns="http://www.w3.org/2000/svg" viewBox="0 0 29.21 53.86"><defs><style>.cls-1{fill:#ffe99d;}</style></defs><g id="Layer_2" data-name="Layer 2"><g id="bok"><path class="cls-1" d="M11.63,7.39,13.29,10a24.34,24.34,0,0,1,1.62,2.67c.26.56.49,1.12.7,1.7l0-6a3,3,0,0,1-1.23-.85,4.09,4.09,0,0,1-.68-1.37,10.53,10.53,0,0,1-.47-1.44A10.64,10.64,0,0,1,13,3.27a.07.07,0,0,1,.05-.07.07.07,0,0,1,.06,0c.22.44.43.88.68,1.3s.49.83.75,1.22a8.4,8.4,0,0,1,.82,1.16,6.87,6.87,0,0,1,.27.68l0-4.27.2,3.8a.19.19,0,0,0,0-.07,5.28,5.28,0,0,1,.89-1.4,14.31,14.31,0,0,1,1-1.28A15.87,15.87,0,0,1,19,3.22h0A17.75,17.75,0,0,0,17.58,2a2.46,2.46,0,0,1-1-2c-.09.94-1.13,1.31-1.84,1.68a5.53,5.53,0,0,0-1.35,1,4.89,4.89,0,0,1-1,.86c-.81.47-1.75.65-2.51,1.19h0C10.49,5.64,11.05,6.52,11.63,7.39Z"/><path class="cls-1" d="M17.58,6.13a8.88,8.88,0,0,1-.64,1.44,5.8,5.8,0,0,1-1,1.11L16.19,13a4.27,4.27,0,0,1,.41-.52,12.69,12.69,0,0,1,2.13-1.49,20.13,20.13,0,0,0,3.36-3,5,5,0,0,1-1.22-.78C20,6.21,20,4.68,19.3,3.61a2.42,2.42,0,0,0-.25-.31c-.26.47-.53.93-.76,1.4S17.81,5.65,17.58,6.13Z"/><path class="cls-1" d="M10.94,18.23c1,1.25,2.05,2.44,2.93,3.77.58.87,1.13,1.74,1.65,2.65l0-2,0-2.22a24.36,24.36,0,0,1-2.38-2.84c-.75-1-1.32-2.13-2-3.19s-1.34-2.13-2-3.18S7.91,9.33,7.28,8.38L6.57,9.5a12.24,12.24,0,0,1-1.26,1.76L8,14.5Z"/><path class="cls-1" d="M12,13.89A26.65,26.65,0,0,1,14.16,17a18.9,18.9,0,0,1,1.41,3l0-4.55a15.49,15.49,0,0,1-1.7-2.19,24.17,24.17,0,0,1-1.41-2.78L11.12,7.67c-.43-.94-.88-1.87-1.31-2.82a6.17,6.17,0,0,0-1.38,1.7L7.37,8.24c.77.87,1.52,1.77,2.26,2.66S11.2,12.89,12,13.89Z"/><path class="cls-1" d="M24.89,18.43l-2.67,2.64c-.9.87-1.74,1.82-2.71,2.6s-1.74,1.38-2.69,2c.05,1.7.07,3.41,0,5.12.7-.9,1.46-1.74,2.23-2.55,1-1.08,2.21-2,3.32-3l3.36-2.94L29,19.58a4.88,4.88,0,0,0-.45-1.17c-.26-.49-.69-.88-.9-1.38a3.05,3.05,0,0,1-.2-1.24C26.64,16.68,25.76,17.55,24.89,18.43Z"/><path class="cls-1" d="M19.31,11.65a22,22,0,0,1-1.93,1.63,3.47,3.47,0,0,0-1.11,1.24l.29,5.4a17.93,17.93,0,0,1,1.37-2,24,24,0,0,1,2.24-2.27l2.28-2.23,1.83-1.73c-.64-.89-.47-2.24-1.18-3.1A3,3,0,0,0,22.29,8,17.24,17.24,0,0,1,21.1,9.74,17,17,0,0,1,19.31,11.65Z"/><path class="cls-1" d="M20.85,16.33a26.66,26.66,0,0,1-2.07,2.42,15.69,15.69,0,0,1-2.19,1.77l.11,2.13c0,.84.08,1.68.11,2.52a16.69,16.69,0,0,1,1.92-2.35,31.62,31.62,0,0,1,2.87-2.44L24.51,18c1-.78,1.95-1.57,2.94-2.34h0a3.42,3.42,0,0,0-.3-1.93c-.6-1-2-1-2.78-1.8l-1.54,1.94Z"/><path class="cls-1" d="M20,36.57c-.6.5-1.19,1-1.76,1.52s-1.13,1-1.63,1.54a7.45,7.45,0,0,0-.63.74c-.12.6-.24,1.2-.38,1.79a1.15,1.15,0,0,1-.64.78,4.69,4.69,0,0,0,0,.53,12.35,12.35,0,0,1,2.22-2.7,18.84,18.84,0,0,1,2.79-2.07c1-.64,1.95-1.25,2.95-1.83.73-.4,1.47-.79,2.23-1.16a11.73,11.73,0,0,1,.77-2.65,9,9,0,0,1,1.28-1.69c-1.19.77-2.37,1.55-3.51,2.39S21.15,35.59,20,36.57Z"/><path class="cls-1" d="M20.49,39.44c-.89.72-1.68,1.54-2.6,2.21A26.62,26.62,0,0,1,15,43.56a.07.07,0,0,1-.08,0h0a.06.06,0,0,1,0,.06l0,0h0a11.47,11.47,0,0,1-2.72-.83,21,21,0,0,1-2.44-1.39L7.24,39.9l-1.17-.73A15,15,0,0,0,8.6,41.92a8.25,8.25,0,0,0,5,2L12,52.48s0,.09,0,.13a1.16,1.16,0,0,0,2.31.19l.76-9,.28.11c4.32-.7,8.43-3.64,9.7-7.81-.61.42-1.21.84-1.8,1.28C22.27,38,21.37,38.72,20.49,39.44Z"/><path class="cls-1" d="M27.86,25.75c-.86.71-1.71,1.43-2.53,2.17q-1.6,1.41-3.12,2.89c-1,1-1.93,2.07-3,3-.86.78-1.72,1.55-2.66,2.27-.07.71-.16,1.42-.26,2.13a25.8,25.8,0,0,1,3.1-2.38c1.28-.9,2.6-1.76,3.94-2.57s2.7-1.53,4.09-2.22a3.67,3.67,0,0,0,.93-1.84c.15-1.11-.49-2.18-.51-3.3C27.85,25.86,27.86,25.8,27.86,25.75Z"/><path class="cls-1" d="M10.07,40.53a18.34,18.34,0,0,1,2.54,1.19l.72.47a1.13,1.13,0,0,1,0-.55.64.64,0,0,1,0-.07h0c.06-.19.1-.38.16-.58a13.12,13.12,0,0,0-1.42-1.66,45.55,45.55,0,0,0-3.72-3.25l-4-3.13L.94,30.18a1.53,1.53,0,0,1,.07,1,3.29,3.29,0,0,0-.23,1.24,4.76,4.76,0,0,0,1,2.68,9.41,9.41,0,0,0,2.14,1.94c.36.26.75.49,1.12.73a.83.83,0,0,1,.15.11,4.19,4.19,0,0,1,.54.73l1.79.75Z"/><path class="cls-1" d="M9.2,23c1.19,1.55,2.46,3,3.54,4.66.85,1.27,1.67,2.55,2.41,3.89q.27-3,.34-6.05A37.77,37.77,0,0,1,13,22.69c-1-1.23-1.85-2.6-2.75-3.91L7.5,14.84,5.19,11.38,5,11.6c-.79.73-2.21,1.32-2.52,2.44a1.37,1.37,0,0,0-.05.28L5.62,18.4Z"/><path class="cls-1" d="M29.08,19.73l-2.91,3L23.05,26C22,27,21,28.14,19.89,29.1a32.94,32.94,0,0,1-3,2.32c0,.32,0,.64,0,1,0,1-.1,1.89-.18,2.84A25.22,25.22,0,0,1,18.4,33a29,29,0,0,1,3.19-2.88c1.1-.92,2.23-1.8,3.38-2.66,1-.69,1.92-1.36,2.91-2,.15-1.23,1-2.27,1.22-3.48A5.22,5.22,0,0,0,29.08,19.73Z"/><path class="cls-1" d="M1.39,20.73a.47.47,0,0,1,.16.55c1.14,1.19,2.27,2.39,3.38,3.62Q6.82,27,8.64,29.22a54.27,54.27,0,0,1,3.53,4.48,41.27,41.27,0,0,1,2.19,3.61c.33-1.66.57-3.34.74-5v-.05c-1.17-1.22-2.24-2.51-3.28-3.83-1.22-1.53-2.25-3.2-3.36-4.81L5.15,18.74,2.39,14.61v.53a3.85,3.85,0,0,1-.09.76,4.29,4.29,0,0,1-.47,1.25,12.64,12.64,0,0,0-1,1.65A1.75,1.75,0,0,0,.9,20.25,1.5,1.5,0,0,0,1.39,20.73Z"/><path class="cls-1" d="M4.72,32.48,8.9,35.32a19.81,19.81,0,0,1,4,3.22,10,10,0,0,1,.89,1.24q.22-.91.42-1.83c-1.05-1.16-2-2.36-3-3.57C10.06,32.9,9,31.31,7.92,29.79s-2.27-3-3.43-4.52c-1-1.28-2-2.53-3-3.78a.83.83,0,0,0,0,.15c-.23.78-.67,1.52-.95,2.28A7.63,7.63,0,0,0,0,26,7.76,7.76,0,0,0,.5,29.12c.08.25.21.51.32.77Z"/><path class="cls-1" d="M14.61,43.24l-.06-.2h-.13Z"/></g></g></svg>