<svg xmlns="http://www.w3.org/2000/svg" viewBox="0 0 33.61 53.86"><defs><style>.cls-1{fill:#f79f23;}</style></defs><g id="Layer_2" data-name="Layer 2"><g id="ek"><path class="cls-1" d="M33.46,32.08c-.62-2.69-4.26-4.61-6.29-2.74A24.29,24.29,0,0,0,29,17.43a10.09,10.09,0,0,0-2.29-6c-1.51-1.6-4.17-2.26-6-1a16.91,16.91,0,0,0-7.6-9.25A7.27,7.27,0,0,0,9.22,0c-3,.17-5.14,3.34-5.14,6.34s1.59,5.77,3.37,8.18a10.82,10.82,0,0,0-6.16,4A6.62,6.62,0,0,0,.81,25.6C2.53,28.42,6.29,29.07,9,31c-.48.26-1,.52-1.42.8q1.52.3,3,.72l1,.29,1,.31,1,.35,1,.36,1,.39.94.39c.32.14.63.29.93.44s.6.33.89.51l.86.56.83.61c.26.22.53.44.78.67a2.73,2.73,0,0,1,.25.23l0-.2,0-.29-.05-.3c-.07-.39-.14-.78-.2-1.17l-.09-.59,0-.3-.06-.29-.21-1.18-.1-.59L20,32.43l-.06-.3c-.17-.77-.34-1.56-.54-2.33l-.27-1c-.26,0-.52,0-.77-.07l-.83-.14-.8-.19-.8-.23c-.26-.08-.52-.18-.78-.28s-.5-.21-.75-.33l-.74-.37-.74-.37-.74-.36-.73-.38-.73-.39L10,25.3c-1-.55-1.89-1.12-2.8-1.73,0,0,0-.05,0-.07a.07.07,0,0,1,.07,0c1,.46,2,.9,3,1.33l.76.32.75.3.76.31.76.3.76.27.77.26.77.28.75.31.74.35c.24.11.49.23.73.36l.73.4c.18.11.37.21.55.33l-.15-.53a2.45,2.45,0,0,0-.08-.29l-.09-.29-.36-1.14-.18-.58-.09-.28L18,25.2l-.4-1.13-.11-.34c-.46-.08-.91-.18-1.36-.28-.69-.17-1.37-.36-2-.57s-1.34-.45-2-.72-1.3-.55-1.95-.81l-2-.78-2-.8L2.29,18.14s0-.05,0-.08a.07.07,0,0,1,.06,0c1.36.4,2.71.81,4.06,1.23l2,.63,2,.64c.67.22,1.35.41,2,.62a20.5,20.5,0,0,1,2,.71c.65.26,1.3.55,1.94.86l.9.46-.09-.24-.44-1.12-.22-.56c-.07-.19-.15-.38-.23-.56A73.28,73.28,0,0,0,12,12.05a.09.09,0,0,1,0-.13.1.1,0,0,1,.13,0,63.27,63.27,0,0,1,5,8.35c.1.18.18.36.27.55l.26.55.52,1.11.13.27.12.28.24.57.48,1.13.12.28.11.28.21.58.43,1.15.11.28a2.47,2.47,0,0,0,.1.29l.19.59.08.24c.1-.3.21-.6.32-.89s.24-.69.37-1,.23-.68.36-1,.22-.68.34-1,.22-.68.35-1,.23-.67.35-1l.34-1c.1-.34.2-.68.29-1l.24-1,.2-1.05.16-1.07L24,16.23a27.06,27.06,0,0,0,.07-4.32,0,0,0,0,1,.05-.05,0,0,0,0,1,.06,0,23.54,23.54,0,0,1,.36,4.36l0,1.1-.07,1.1-.13,1.09-.18,1.1-.21,1.08-.24,1.08c-.1.36-.19.72-.31,1.07s-.26.69-.4,1l-.48,1c-.18.33-.36.65-.55,1s-.41.61-.62.91-.45.58-.7.85l.25.73.1.29c0,.1.06.2.08.3l.18.59.35,1.17.09.3.08.29.16.6.32,1.19c.19.8.35,1.61.5,2.41l.05.31,0,.3.08.61c.05.41.1.82.14,1.23.06.68.1,1.36.13,2,.07-.17.15-.34.23-.51s.23-.49.35-.73.23-.48.36-.72.26-.47.39-.7l.41-.69.37-.72.36-.72.34-.73.32-.74.32-.75c.41-1,.78-2,1.12-3a.06.06,0,0,1,.07,0,.08.08,0,0,1,0,.06,31.51,31.51,0,0,1-.72,3.2L26.9,35l-.25.78-.28.78-.29.77-.3.77-.31.77c-.12.25-.23.5-.36.74s-.27.48-.41.72-.31.46-.47.68-.33.45-.5.66-.35.4-.54.6v.42c0,.41,0,.82,0,1.23,0,.82-.11,1.64-.19,2.46-.05.4-.11.81-.18,1.22s-.14.8-.22,1.21a.09.09,0,0,1-.11.07s-.08,0-.08-.08h0c-.13-.82-.21-1.62-.3-2.42s-.19-1.6-.29-2.4-.21-1.59-.32-2.38l-.18-1.18-.08-.59c0-.2-.06-.4-.1-.59-.06-.38-.13-.75-.19-1.13l-.59-.26c-.31-.13-.62-.28-.92-.42L18.51,37l-.9-.44c-.3-.14-.6-.29-.89-.45l-.88-.48L15,35.09l-.89-.46-.91-.42-.92-.41-.93-.39L10.39,33c-1-.4-2.05-.75-3.09-1.08a9.87,9.87,0,0,0-2.56,2.16,4.51,4.51,0,0,0-.65,4.94,6,6,0,0,0,2.36,2A30,30,0,0,0,14,44a33.86,33.86,0,0,1,3.56.93,2.11,2.11,0,0,1,.88.51c.28.27.63.46.92.72a4.82,4.82,0,0,1,1.4,2,4.91,4.91,0,0,1-.15,3.67,4.32,4.32,0,0,0-.41,1,.93.93,0,0,0,.38,1q.26-.69.54-1.35a26.53,26.53,0,0,1,4.68-7.29,2,2,0,0,1,.45-.42c.12-.08.26-.13.37-.21a8.92,8.92,0,0,0,1-.89c.42-.41.83-.83,1.22-1.26A33.63,33.63,0,0,0,31,39.73C32.68,37.5,34.09,34.77,33.46,32.08ZM18.16,21.94s0,0,0,0h0c-.05-.29-.08-.58-.11-.87s-.06-.57-.08-.85-.05-.57-.07-.85l-.06-.85c0-.28,0-.56,0-.84s0-.56,0-.84l0-.85c0-.28,0-.56,0-.84l-.09-.85-.12-.84-.13-.84-.16-.84a30.46,30.46,0,0,0-.87-3.31.05.05,0,0,1,0-.07.08.08,0,0,1,.07,0,23.81,23.81,0,0,1,1.3,3.22l.25.83.23.84.19.85.16.86.15.86.13.87a8.52,8.52,0,0,1,.08.87c0,.3,0,.59,0,.88s0,.59-.07.88-.07.58-.12.87-.12.57-.19.85-.17.57-.28.85A.05.05,0,0,1,18.16,21.94Zm5.35,12a7.42,7.42,0,0,1-.68,1.1.06.06,0,0,1-.08,0,.05.05,0,0,1,0,0,9,9,0,0,1,.05-1.28A12.34,12.34,0,0,1,23,32.51a6.85,6.85,0,0,1,.37-1.19c.16-.39.32-.77.46-1.16L24.26,29l.45-1.17c.31-.78.62-1.55.94-2.32a.05.05,0,0,1,.07,0,.06.06,0,0,1,0,.06c-.16.82-.35,1.64-.53,2.45L25,29.2l-.29,1.21c-.1.41-.18.82-.27,1.22a8.29,8.29,0,0,1-.36,1.2A11.72,11.72,0,0,1,23.51,34Z"/></g></g></svg>