<svg xmlns="http://www.w3.org/2000/svg" viewBox="0 0 20.48 55.37"><defs><style>.cls-1{fill:#848484;}</style></defs><g id="Layer_2" data-name="Layer 2"><g id="gräs"><path class="cls-1" d="M20,12.18a39.27,39.27,0,0,0-1.38-5.54c-.64-2-1.36-4-2.4-6.64A13.5,13.5,0,0,0,12.5,1.3a19.78,19.78,0,0,0-3.08,2,23.24,23.24,0,0,0-4.6,4.84A25.93,25.93,0,0,0,.34,19.2a26.37,26.37,0,0,0,.73,11.68,25.54,25.54,0,0,0,2.55,5.83,24.82,24.82,0,0,0,3.24,4.34A82.12,82.12,0,0,0,6.76,54a1.5,1.5,0,0,0,1.5,1.39h.11a1.5,1.5,0,0,0,1.38-1.61,80.54,80.54,0,0,1,.12-12.71q.68-.61,1.26-1.23c.83-.86,1.57-1.71,2.25-2.56a34.34,34.34,0,0,0,3.32-5,31.36,31.36,0,0,0,3.38-9.9A30.54,30.54,0,0,0,20,12.18ZM9.4,38.54a1,1,0,0,1-1,1,1,1,0,0,1-1-.95v-.06A93.79,93.79,0,0,1,14.14,4.66,92.71,92.71,0,0,0,9.4,38.54Z"/></g></g></svg>